<svg width="50" height="47" viewBox="0 0 50 47" fill="none" xmlns="http://www.w3.org/2000/svg">
<path fill-rule="evenodd" clip-rule="evenodd" d="M42.2043 31.5778C42.6454 31.162 43.3606 31.162 43.8017 31.5778C44.2428 31.9935 44.2428 32.6675 43.8017 33.0833L43.003 33.836C41.9381 38.8544 40.607 42.1163 39.0096 43.6219C36.6135 45.8801 33.2282 45.7005 31.0226 43.6219C28.8171 41.5432 28.6265 38.3526 31.0226 36.0943C32.62 34.5888 36.081 33.3342 41.4056 32.3305L42.2043 31.5778ZM2.98947 31.1524C3.30138 30.6433 3.99218 30.4688 4.53243 30.7628L5.51062 31.2951C10.9294 30.9657 14.617 31.3333 16.5734 32.3978C19.508 33.9947 20.2002 37.123 18.6406 39.6689C17.0811 42.2147 13.8604 43.214 10.9258 41.6172C8.96942 40.5526 6.78785 37.7265 4.3811 33.1389L3.4029 32.6066C2.86266 32.3127 2.67756 31.6616 2.98947 31.1524ZM25.8754 9.51171C26.4992 9.51171 27.0049 9.98832 27.0049 10.5763V11.6408C30.0169 15.899 31.523 19.0927 31.523 21.2218C31.523 24.4155 28.9944 26.5446 25.8754 26.5446C22.7563 26.5446 20.2277 24.4155 20.2277 21.2218C20.2277 19.0927 21.7338 15.899 24.7458 11.6408V10.5763C24.7458 9.98832 25.2515 9.51171 25.8754 9.51171ZM41.0976 6.71204C44.1104 5.95119 47.1374 7.39097 48.0145 10.4758C48.5991 12.5324 48.0215 15.9846 46.2814 20.8325L46.5737 21.8608C46.7352 22.4287 46.3776 23.0124 45.775 23.1646C45.1725 23.3167 44.5531 22.9797 44.3917 22.4118L44.0993 21.3835C40.0205 18.0051 37.6888 15.2877 37.1041 13.2311C36.2271 10.1462 38.0848 7.47289 41.0976 6.71204ZM9.91589 1.2508L10.1417 1.28544C10.7443 1.43761 11.1019 2.02135 10.9404 2.58925L10.6481 3.61753C12.3881 8.46541 12.9658 11.9176 12.3811 13.9742C11.5041 17.059 8.47705 18.4988 5.46424 17.738C2.45142 16.9771 0.593741 14.3038 1.47077 11.2189C2.05545 9.16235 4.38719 6.44487 8.46599 3.06648L8.75833 2.0382C8.91979 1.47029 9.53915 1.13327 10.1417 1.28544L9.91589 1.2508Z" stroke="#1D1326" stroke-width="2.5" stroke-linecap="round"/>
</svg>
